<svg width="10" height="10" viewBox="0 0 10 10" fill="none" xmlns="http://www.w3.org/2000/svg">
<path fill-rule="evenodd" clip-rule="evenodd" d="M8.00517 9.0659C8.29807 9.3588 8.77297 9.3588 9.06587 9.0659C9.35867 8.773 9.35867 8.2981 9.06587 8.0052L6.06067 5L9.06577 1.99482C9.35867 1.70193 9.35867 1.22706 9.06577 0.934163C8.77297 0.641273 8.29807 0.641273 8.00517 0.934163L4.99997 3.9394L1.99476 0.934153C1.70186 0.641253 1.22699 0.641253 0.934102 0.934153C0.641202 1.22704 0.641202 1.70191 0.934102 1.99481L3.93927 5L0.934092 8.0052C0.641192 8.2981 0.641192 8.773 0.934092 9.0659C1.22698 9.3588 1.70185 9.3588 1.99475 9.0659L4.99997 6.0607L8.00517 9.0659Z" fill="#10182B"/>
</svg>
