<svg width="16" height="16" viewBox="0 0 16 16" fill="none" xmlns="http://www.w3.org/2000/svg">
<path d="M6.38297 0.0760069C6.20019 0.000302315 5.99907 -0.0194893 5.80505 0.0191374C5.61102 0.0577641 5.43281 0.153073 5.29297 0.293006L0.292969 5.29301L1.70697 6.70701L4.99997 3.41401L4.99997 16H6.99997L6.99997 1.00001C7.00002 0.802241 6.94143 0.608901 6.8316 0.444432C6.72178 0.279963 6.56565 0.151752 6.38297 0.0760069ZM9.61697 15.924C9.79974 15.9997 10.0009 16.0195 10.1949 15.9809C10.3889 15.9422 10.5671 15.8469 10.707 15.707L15.707 10.707L14.293 9.29301L11 12.586L11 5.72205e-06H8.99997L8.99997 15C8.99979 15.1978 9.05832 15.3912 9.16817 15.5557C9.27801 15.7202 9.4342 15.8484 9.61697 15.924Z" fill="black"/>
</svg>
