<svg width="21" height="16" viewBox="0 0 21 16" fill="none" xmlns="http://www.w3.org/2000/svg">
<path d="M16.0625 0H4.0625C1.8525 0 0.0625 1.79 0.0625 4V12C0.0625 14.21 1.8525 16 4.0625 16H16.0625C18.2725 16 20.0625 14.21 20.0625 12V4C20.0625 1.79 18.2725 0 16.0625 0ZM14.2025 9.77C13.9625 9.97 13.6325 10.05 13.3225 9.97L2.2125 7.25C2.5125 6.52 3.2225 6 4.0625 6H16.0625C16.7325 6 17.3225 6.34 17.6925 6.84L14.2025 9.77ZM4.0625 2H16.0625C17.1625 2 18.0625 2.9 18.0625 4V4.55C17.4725 4.21 16.7925 4 16.0625 4H4.0625C3.3325 4 2.6525 4.21 2.0625 4.55V4C2.0625 2.9 2.9625 2 4.0625 2Z" fill="white"/>
</svg>
